<svg xmlns="http://www.w3.org/2000/svg" width="178.289" height="32.92" viewBox="0 0 178.289 32.92">
  <g id="logo" transform="translate(1)">
    <path id="Path_34196" data-name="Path 34196" d="M13.561,32.881a19.53,19.53,0,0,1-4.925-.624,12.968,12.968,0,0,1-4.393-2.044,10.412,10.412,0,0,1-3.121-3.651A10.849,10.849,0,0,1,0,21.329l.023-1.444H8.981v1.466a3.8,3.8,0,0,0,.351,1.75l.023.045a3.021,3.021,0,0,0,.9,1.053,4.5,4.5,0,0,0,1.519.685,8.829,8.829,0,0,0,3.6.129,4.821,4.821,0,0,0,1.372-.41,2.438,2.438,0,0,0,.878-.686,1.328,1.328,0,0,0,.236-.854,1.02,1.02,0,0,0-.292-.819,4.447,4.447,0,0,0-1.452-.882,17.89,17.89,0,0,0-2.5-.77c-1.029-.243-2.08-.517-3.123-.811a28.324,28.324,0,0,1-3.227-1.016,12.157,12.157,0,0,1-3.074-1.7,8.513,8.513,0,0,1-2.329-2.758,8.416,8.416,0,0,1-.91-4.015A8.908,8.908,0,0,1,2.089,5.759,9.958,9.958,0,0,1,4.955,2.614,12.168,12.168,0,0,1,8.841.8a17.83,17.83,0,0,1,8.824-.03A12.2,12.2,0,0,1,21.8,2.608a9.651,9.651,0,0,1,2.975,3.348,10.212,10.212,0,0,1,1.111,4.894v1.466H17l-.086-1.374a3.64,3.64,0,0,0-.36-1.5,2.062,2.062,0,0,0-.711-.777A3.717,3.717,0,0,0,14.6,8.19a7.7,7.7,0,0,0-3.044-.041,2.594,2.594,0,0,0-.879.354,1.979,1.979,0,0,0-.588.574,1.3,1.3,0,0,0-.152.7,1.161,1.161,0,0,0,.1.583,1.822,1.822,0,0,0,.626.4A14.51,14.51,0,0,0,13,11.541q1.645.437,4.3,1.11c.506.1,1.279.3,2.263.592a12.141,12.141,0,0,1,3.193,1.513,9.985,9.985,0,0,1,2.825,2.863,8.418,8.418,0,0,1,1.258,4.728,10.183,10.183,0,0,1-.886,4.224A9.359,9.359,0,0,1,23.3,29.988,12.307,12.307,0,0,1,19.1,32.141a19.015,19.015,0,0,1-5.541.74M1.28,21.161l0,.188a9.6,9.6,0,0,0,.976,4.625,9.164,9.164,0,0,0,2.741,3.209,11.705,11.705,0,0,0,3.963,1.84,18.225,18.225,0,0,0,4.6.583,17.774,17.774,0,0,0,5.167-.685A11.024,11.024,0,0,0,22.491,29a8.1,8.1,0,0,0,2.3-2.953,8.921,8.921,0,0,0,.772-3.7,7.182,7.182,0,0,0-1.046-4.024,8.715,8.715,0,0,0-2.462-2.5A10.851,10.851,0,0,0,19.2,14.466c-.933-.275-1.688-.473-2.183-.571-1.808-.457-3.247-.828-4.346-1.121a15.745,15.745,0,0,1-2.554-.864,2.674,2.674,0,0,1-1.171-.881,2.346,2.346,0,0,1-.29-1.252A2.5,2.5,0,0,1,9.026,8.37a3.239,3.239,0,0,1,.958-.939,3.881,3.881,0,0,1,1.308-.53,8.969,8.969,0,0,1,3.562.04,4.988,4.988,0,0,1,1.666.649,3.307,3.307,0,0,1,1.148,1.243,4.88,4.88,0,0,1,.514,2.03l.012.179h6.417v-.191a8.959,8.959,0,0,0-.958-4.288,8.381,8.381,0,0,0-2.584-2.909,10.913,10.913,0,0,0-3.7-1.64,16.525,16.525,0,0,0-8.189.021A10.873,10.873,0,0,0,5.694,3.654,8.685,8.685,0,0,0,3.193,6.4a7.652,7.652,0,0,0-.961,3.895,7.162,7.162,0,0,0,.758,3.412,7.227,7.227,0,0,0,1.981,2.348,10.845,10.845,0,0,0,2.753,1.519,27.12,27.12,0,0,0,3.1.975c1.045.295,2.078.563,3.089.8a19.228,19.228,0,0,1,2.678.827,5.683,5.683,0,0,1,1.867,1.153,2.29,2.29,0,0,1,.679,1.733,2.536,2.536,0,0,1-.515,1.651A3.683,3.683,0,0,1,17.3,25.754a6.076,6.076,0,0,1-1.735.521,10.073,10.073,0,0,1-4.1-.156,5.757,5.757,0,0,1-1.945-.885A4.281,4.281,0,0,1,8.2,23.691l-.036-.071a5.115,5.115,0,0,1-.46-2.268v-.191Z" transform="translate(-1 -0.098)" fill="#fff"/>
    <path id="Path_34197" data-name="Path 34197" d="M74.11,32.735H49.618V1.4H73.792V9.586h-15v3.153H72.559v7.785H58.8v4.029H74.11ZM50.893,31.461H72.835V25.828H57.52V19.249H71.284V14.014H57.52V8.31h15V2.677H50.893Z" transform="translate(-21.852 -0.588)" fill="#fff"/>
    <path id="Path_34198" data-name="Path 34198" d="M113.343,1.224h-7.925L93.49,32.767h8.469L104.3,26.13H114.2l2.253,6.637h8.681ZM111.9,19.507h-5.273l2.68-7.549Z" transform="translate(-38.289 -0.514)" fill="#fff"/>
    <path id="Path_34199" data-name="Path 34199" d="M176.123,31.382a3.537,3.537,0,0,1-.547-1.224,12.3,12.3,0,0,1-.311-1.773c-.068-.653-.116-1.295-.143-1.91-.028-.645-.056-1.205-.085-1.7a19.085,19.085,0,0,0-.328-2.363,8.485,8.485,0,0,0-.816-2.3,6.576,6.576,0,0,0-1.491-1.875,5.123,5.123,0,0,0-.628-.464,7.161,7.161,0,0,0,2.418-2.473,9.858,9.858,0,0,0,1.222-4.984,9.287,9.287,0,0,0-.67-3.523,8.615,8.615,0,0,0-1.95-2.9,9.236,9.236,0,0,0-3.039-1.96,10.514,10.514,0,0,0-3.935-.71h-16.94V32.767h8.293V21.121h5.684a4.116,4.116,0,0,1,2.933.831,5.137,5.137,0,0,1,1.173,2.928c.163,1.168.288,2.411.369,3.692a12.459,12.459,0,0,0,.724,3.636l.214.559h8.869ZM157.174,8.056h6.31a4.249,4.249,0,0,1,2.81.767,3.192,3.192,0,0,1,.828,2.5,3.382,3.382,0,0,1-.835,2.606,4.173,4.173,0,0,1-2.8.782h-6.31Z" transform="translate(-59.568 -0.514)" fill="#fff"/>
    <path id="Path_34200" data-name="Path 34200" d="M220.147,19.034l-.1.762a7.683,7.683,0,0,1-1.844,4.361,5.19,5.19,0,0,1-4.056,1.556,6.824,6.824,0,0,1-3.335-.747,6.323,6.323,0,0,1-2.206-2,9.042,9.042,0,0,1-1.274-2.914,14.384,14.384,0,0,1-.413-3.444,15.534,15.534,0,0,1,.415-3.6,9.225,9.225,0,0,1,1.277-3A6.263,6.263,0,0,1,210.818,8a6.835,6.835,0,0,1,3.335-.747,5.987,5.987,0,0,1,2.023.346,5.913,5.913,0,0,1,1.729.963,5.781,5.781,0,0,1,1.27,1.433,4.525,4.525,0,0,1,.63,1.735l.11.742h8.068l-.11-.968a12.922,12.922,0,0,0-1.525-4.92,12.1,12.1,0,0,0-3.081-3.619A13.559,13.559,0,0,0,219.075.751a16.854,16.854,0,0,0-11.431.533,14.107,14.107,0,0,0-4.913,3.559,15.842,15.842,0,0,0-3.048,5.276,19.571,19.571,0,0,0-1.051,6.486,18.954,18.954,0,0,0,1.052,6.364,15.442,15.442,0,0,0,3.053,5.2,14.111,14.111,0,0,0,4.912,3.492,16.215,16.215,0,0,0,6.5,1.262,15.617,15.617,0,0,0,5.348-.888,12.626,12.626,0,0,0,4.3-2.6,13.014,13.014,0,0,0,2.953-4.113,16.1,16.1,0,0,0,1.372-5.338l.085-.947Z" transform="translate(-80.477)" fill="#fff"/>
    <path id="Path_34201" data-name="Path 34201" d="M272.832,1.224V12.661H262.508V1.224h-8.292V32.766h8.292V19.91h10.325V32.766h8.293V1.224Z" transform="translate(-103.836 -0.514)" fill="#fff"/>
  </g>
</svg>
