<svg xmlns="http://www.w3.org/2000/svg" width="68" height="68" viewBox="0 0 68 68">
  <g id="Group_223" data-name="Group 223" transform="translate(-258.6 -527)">
    <rect id="Rectangle_60" data-name="Rectangle 60" width="68" height="68" transform="translate(258.6 527)" fill="none"/>
    <path id="Icon_awesome-phone-alt" data-name="Icon awesome-phone-alt" d="M52.548,38.223,40.715,33.152a2.536,2.536,0,0,0-2.958.729l-5.24,6.4A39.159,39.159,0,0,1,13.8,21.563l6.4-5.24a2.529,2.529,0,0,0,.729-2.958L15.858,1.533A2.552,2.552,0,0,0,12.952.064L1.965,2.6A2.536,2.536,0,0,0,0,5.071a49.015,49.015,0,0,0,49.02,49.02,2.536,2.536,0,0,0,2.472-1.965l2.536-10.987a2.566,2.566,0,0,0-1.48-2.916Z" transform="translate(265.555 533.954)" fill="#fff"/>
  </g>
</svg>
